<svg width="23.625000" height="23.620300" viewBox="0 0 23.625 23.6203" fill="none" xmlns="http://www.w3.org/2000/svg" xmlns:xlink="http://www.w3.org/1999/xlink">
	<desc>
			Created with Pixso.
	</desc>
	<defs/>
	<path id="Vector" d="M11.8 2.12C14.96 2.12 15.33 2.14 16.57 2.19C17.73 2.25 18.35 2.44 18.77 2.6C19.32 2.82 19.72 3.07 20.13 3.48C20.54 3.9 20.8 4.29 21.01 4.84C21.17 5.26 21.37 5.88 21.42 7.04C21.47 8.28 21.49 8.65 21.49 11.81C21.49 14.96 21.47 15.33 21.42 16.58C21.37 17.73 21.17 18.36 21.01 18.77C20.79 19.33 20.54 19.72 20.13 20.13C19.72 20.55 19.32 20.8 18.77 21.01C18.35 21.17 17.73 21.37 16.57 21.42C15.33 21.48 14.96 21.49 11.8 21.49C8.65 21.49 8.28 21.48 7.03 21.42C5.88 21.37 5.25 21.18 4.84 21.01C4.28 20.8 3.89 20.55 3.48 20.13C3.07 19.72 2.81 19.33 2.6 18.77C2.44 18.36 2.24 17.73 2.19 16.58C2.13 15.33 2.12 14.96 2.12 11.81C2.12 8.65 2.13 8.28 2.19 7.04C2.24 5.88 2.43 5.26 2.6 4.84C2.81 4.29 3.07 3.9 3.48 3.48C3.89 3.07 4.28 2.81 4.84 2.6C5.25 2.44 5.88 2.25 7.03 2.19C8.28 2.13 8.65 2.12 11.8 2.12ZM11.8 0C8.6 0 8.19 0.01 6.93 0.07C5.68 0.12 4.82 0.32 4.07 0.61C3.29 0.91 2.63 1.32 1.98 1.98C1.32 2.63 0.92 3.29 0.61 4.07C0.32 4.82 0.12 5.68 0.07 6.94C0.01 8.19 0 8.6 0 11.8C0 15.01 0.01 15.41 0.07 16.67C0.12 17.93 0.32 18.79 0.61 19.54C0.91 20.32 1.32 20.98 1.98 21.63C2.63 22.29 3.3 22.69 4.07 23C4.82 23.29 5.68 23.49 6.94 23.55C8.2 23.6 8.6 23.62 11.81 23.62C15.02 23.62 15.42 23.6 16.68 23.55C17.93 23.49 18.79 23.29 19.55 23C20.32 22.7 20.98 22.29 21.64 21.63C22.29 20.98 22.7 20.32 23 19.54C23.29 18.79 23.49 17.93 23.55 16.67C23.61 15.41 23.62 15.01 23.62 11.8C23.62 8.59 23.61 8.19 23.55 6.93C23.49 5.68 23.29 4.82 23 4.06C22.7 3.29 22.29 2.63 21.64 1.97C20.98 1.32 20.32 0.91 19.55 0.61C18.8 0.32 17.94 0.12 16.68 0.06C15.41 0.01 15.01 0 11.8 0Z" fill="#331B3B" fill-opacity="1.000000" fill-rule="nonzero"/>
	<path id="Vector" d="M11.8 5.74C8.46 5.74 5.74 8.45 5.74 11.8C5.74 15.15 8.46 17.87 11.8 17.87C15.15 17.87 17.87 15.15 17.87 11.8C17.87 8.46 15.15 5.74 11.8 5.74ZM11.8 15.74C9.63 15.74 7.87 13.98 7.87 11.8C7.87 9.63 9.63 7.87 11.8 7.87C13.98 7.87 15.74 9.63 15.74 11.8C15.74 13.98 13.98 15.74 11.8 15.74Z" fill="#331B3B" fill-opacity="1.000000" fill-rule="nonzero"/>
	<path id="Vector" d="M19.52 5.5C19.52 6.28 18.89 6.91 18.11 6.91C17.33 6.91 16.69 6.28 16.69 5.5C16.69 4.72 17.33 4.08 18.11 4.08C18.89 4.08 19.52 4.72 19.52 5.5Z" fill="#331B3B" fill-opacity="1.000000" fill-rule="evenodd"/>
</svg>
