<svg width="18.000000" height="18.000000" viewBox="0 0 18 18" fill="none" xmlns="http://www.w3.org/2000/svg" xmlns:xlink="http://www.w3.org/1999/xlink">
	<desc>
			Created with Pixso.
	</desc>
	<defs/>
	<path id="Linkedin" d="M18 18L14.3 18L14.3 11.7C14.3 9.97 13.64 9 12.27 9C10.79 9 10.01 10.01 10.01 11.7L10.01 18L6.44 18L6.44 6L10.01 6L10.01 7.61C10.01 7.61 11.08 5.63 13.63 5.63C16.17 5.63 18 7.18 18 10.4L18 18ZM2.19 4.42C0.98 4.42 0 3.43 0 2.21C0 0.99 0.98 0 2.19 0C3.41 0 4.39 0.99 4.39 2.21C4.39 3.43 3.41 4.42 2.19 4.42ZM0.35 18L4.07 18L4.07 6L0.35 6L0.35 18Z" fill="#331B3B" fill-opacity="1.000000" fill-rule="evenodd"/>
</svg>
