<svg width="35.448120" height="35.373596" viewBox="0 0 35.4481 35.3736" fill="none" xmlns="http://www.w3.org/2000/svg" xmlns:xlink="http://www.w3.org/1999/xlink">
	<desc>
			Created with Pixso.
	</desc>
	<defs/>
	<path id="Vector" d="M23.16 15.23C22.38 15.23 21.63 14.92 21.08 14.36C20.52 13.8 20.21 13.06 20.21 12.27C20.21 11.48 20.52 10.74 21.08 10.18C21.63 9.63 22.38 9.32 23.16 9.32C23.95 9.32 24.7 9.63 25.25 10.18C26.41 11.34 26.41 13.21 25.25 14.36C24.7 14.92 23.95 15.23 23.16 15.23ZM23.16 10.11C22.59 10.11 22.04 10.33 21.63 10.74C21.22 11.15 21 11.7 21 12.27C21 12.85 21.22 13.4 21.63 13.81C22.04 14.22 22.59 14.44 23.16 14.44C23.74 14.44 24.29 14.22 24.7 13.81C25.54 12.96 25.54 11.59 24.7 10.74C24.29 10.33 23.74 10.11 23.16 10.11ZM21.35 10.46L21.36 10.46L21.35 10.46Z" fill="#331B3B" fill-opacity="1.000000" fill-rule="nonzero"/>
	<path id="Vector" d="M35.44 2.35C35.44 2.17 35.44 1.99 35.44 1.81C35.44 1.72 35.43 1.62 35.43 1.52C35.42 1.39 35.42 1.27 35.41 1.15C35.4 0.91 35.39 0.67 35.37 0.43C35.35 0.24 35.2 0.09 35.01 0.07C34.77 0.05 34.53 0.04 34.29 0.02C34.17 0.02 34.05 0.01 33.94 0.01C33.83 0.01 33.72 0 33.62 0C33.45 0 33.28 0 33.1 0C33.07 0 33.05 0 33.02 0C29.53 0.01 26.33 0.89 23.09 2.7C23.09 2.7 23.09 2.7 23.08 2.71C20.47 4.16 17.86 6.22 15.16 8.92C14.81 9.27 14.47 9.62 14.13 9.98C14.12 9.98 14.11 9.97 14.1 9.97L8.68 10.38C8.61 10.39 8.53 10.42 8.47 10.46L0.15 16.79C0.02 16.89 -0.03 17.06 0.01 17.22C0.06 17.37 0.19 17.48 0.35 17.5L8.31 18.22L11.51 21.41C10.46 21.41 9.29 21.9 8.35 22.83C7.93 23.26 7.59 23.73 7.34 24.25C6.99 24.99 6.22 26.91 5.4 28.94L5.01 29.92C4.95 30.06 4.98 30.23 5.1 30.34C5.17 30.42 5.27 30.46 5.37 30.46C5.42 30.46 5.47 30.45 5.52 30.43L6.53 30.02C8.55 29.21 10.45 28.44 11.19 28.1C11.7 27.85 12.18 27.51 12.6 27.08C13.35 26.34 13.84 25.43 13.99 24.51C14.02 24.32 14.03 24.12 14.03 23.94L17.15 27.05L17.87 35.01C17.88 35.17 17.99 35.31 18.15 35.35C18.18 35.36 18.22 35.37 18.26 35.37C18.38 35.37 18.5 35.31 18.57 35.21L24.9 26.89C24.95 26.83 24.98 26.76 24.98 26.68L25.39 21.38C25.77 21.02 26.15 20.65 26.52 20.28C29.22 17.57 31.28 14.96 32.73 12.35C32.74 12.35 32.74 12.35 32.74 12.34C34.55 9.1 35.43 5.9 35.44 2.41C35.44 2.39 35.44 2.37 35.44 2.35ZM34.04 7.13C34.03 7.18 34.01 7.22 34 7.27C33.64 8.59 33.09 9.99 32.29 11.49L23.95 3.15C25.44 2.35 26.85 1.8 28.16 1.44C28.21 1.43 28.26 1.41 28.31 1.4C28.41 1.37 28.51 1.35 28.6 1.32C30.53 0.85 32.51 0.69 34.61 0.83C34.75 2.93 34.59 4.91 34.12 6.83C34.09 6.93 34.07 7.03 34.04 7.13ZM8.86 11.16L13.36 10.82C12.55 11.72 11.78 12.63 11.07 13.56C11.07 13.56 11.06 13.56 11.06 13.56C11.03 13.6 11 13.64 10.97 13.68C10.74 13.98 10.52 14.28 10.3 14.58C10.25 14.64 10.21 14.7 10.17 14.76C9.96 15.04 9.76 15.33 9.56 15.62C9.48 15.74 9.4 15.86 9.32 15.98C9.17 16.2 9.02 16.43 8.87 16.66C8.7 16.92 8.55 17.18 8.39 17.43L1.44 16.81L8.86 11.16ZM9.65 16.91C9.75 16.76 9.85 16.61 9.95 16.45C10.05 16.3 10.16 16.14 10.26 15.99C10.4 15.79 10.53 15.6 10.67 15.41C10.74 15.3 10.82 15.2 10.9 15.1C11.06 14.87 11.22 14.65 11.39 14.42C11.4 14.41 11.41 14.41 11.41 14.4L21.04 24.02C21.03 24.03 21.02 24.04 21.01 24.05C20.79 24.22 20.57 24.38 20.35 24.54C20.24 24.62 20.13 24.69 20.03 24.77C19.84 24.91 19.65 25.04 19.46 25.17C19.29 25.28 19.13 25.39 18.97 25.5C18.83 25.59 18.68 25.69 18.53 25.79C18.22 25.99 17.9 26.19 17.59 26.38L9.06 17.85C9.25 17.54 9.44 17.22 9.65 16.91ZM13.21 24.39C13.09 25.14 12.67 25.9 12.05 26.53C11.68 26.89 11.28 27.18 10.85 27.38C10.14 27.72 8.16 28.52 6.24 29.29L6.09 29.35L6.13 29.23C6.91 27.3 7.72 25.3 8.05 24.59C8.26 24.16 8.55 23.75 8.91 23.39C9.69 22.61 10.66 22.19 11.48 22.19C11.98 22.19 12.44 22.34 12.76 22.67C13.17 23.07 13.32 23.68 13.21 24.39ZM24.21 26.51L18.56 33.93L17.94 27.08C18.22 26.92 18.5 26.75 18.78 26.57C19 26.43 19.22 26.28 19.44 26.13C19.57 26.04 19.69 25.96 19.82 25.88C20.1 25.69 20.38 25.49 20.66 25.29C20.73 25.24 20.8 25.19 20.87 25.14C21.16 24.93 21.44 24.71 21.73 24.49C21.78 24.45 21.83 24.41 21.88 24.37C21.88 24.37 21.88 24.37 21.88 24.37C22.78 23.68 23.66 22.94 24.54 22.15L24.21 26.51ZM25.96 19.72C24.58 21.1 23.13 22.39 21.67 23.54L11.9 13.77C13.05 12.3 14.33 10.86 15.72 9.48C18.44 6.76 20.94 4.86 23.23 3.54L31.9 12.21C30.58 14.5 28.68 17 25.96 19.72Z" fill="#331B3B" fill-opacity="1.000000" fill-rule="nonzero"/>
</svg>
