<svg width="23.406006" height="35.447632" viewBox="0 0 23.406 35.4476" fill="none" xmlns="http://www.w3.org/2000/svg" xmlns:xlink="http://www.w3.org/1999/xlink">
	<desc>
			Created with Pixso.
	</desc>
	<defs/>
	<path id="Vector" d="M10.05 21.11C8.43 21.11 6.8 20.49 5.56 19.25C3.08 16.77 3.08 12.74 5.56 10.26C8.04 7.78 12.07 7.78 14.55 10.26C17.03 12.74 17.03 16.77 14.55 19.25C13.31 20.49 11.68 21.11 10.05 21.11ZM10.05 9.19C8.63 9.19 7.2 9.73 6.12 10.82C3.94 12.99 3.94 16.52 6.12 18.69C8.29 20.86 11.82 20.86 13.99 18.69C16.16 16.52 16.16 12.99 13.99 10.82C12.91 9.73 11.48 9.19 10.05 9.19Z" fill="#331B3B" fill-opacity="1.000000" fill-rule="nonzero"/>
	<path id="Vector" d="M22.97 25.58L17.74 20.35C17.26 19.87 16.53 19.8 15.97 20.11L14.81 18.96C17.02 16.46 16.93 12.64 14.55 10.26C12.07 7.78 8.04 7.78 5.56 10.26C3.08 12.74 3.08 16.77 5.56 19.25C6.8 20.49 8.43 21.11 10.05 21.11C11.56 21.11 13.06 20.57 14.26 19.51L15.41 20.67C15.09 21.23 15.17 21.96 15.65 22.44L20.88 27.67C21.16 27.95 21.53 28.1 21.93 28.1C22.32 28.1 22.69 27.95 22.97 27.67C23.25 27.39 23.4 27.02 23.4 26.63C23.4 26.23 23.25 25.86 22.97 25.58ZM6.12 18.69C3.94 16.52 3.94 12.99 6.12 10.82C7.2 9.73 8.63 9.19 10.05 9.19C11.48 9.19 12.91 9.73 13.99 10.82C16.16 12.99 16.16 16.52 13.99 18.69C11.82 20.86 8.29 20.86 6.12 18.69ZM22.41 27.11C22.15 27.37 21.7 27.37 21.44 27.11L16.2 21.88C15.94 21.61 15.94 21.17 16.2 20.91C16.34 20.77 16.52 20.7 16.69 20.7C16.87 20.7 17.04 20.77 17.18 20.91L22.41 26.14C22.54 26.27 22.61 26.44 22.61 26.63C22.61 26.81 22.54 26.98 22.41 27.11Z" fill="#331B3B" fill-opacity="1.000000" fill-rule="nonzero"/>
	<path id="Vector" d="M5.93 17.02C5.81 17.02 5.7 16.96 5.62 16.86C5.49 16.69 5.52 16.44 5.69 16.31L11.38 12.01C11.47 11.94 11.58 11.91 11.69 11.93C11.8 11.96 11.89 12.02 11.95 12.12L13.71 15L14.3 14.58C14.48 14.45 14.73 14.49 14.85 14.67C14.98 14.84 14.94 15.09 14.76 15.22L13.83 15.89C13.74 15.95 13.63 15.98 13.52 15.96C13.41 15.93 13.32 15.87 13.26 15.77L11.51 12.9L6.17 16.94C6.1 16.99 6.02 17.02 5.93 17.02Z" fill="#331B3B" fill-opacity="1.000000" fill-rule="nonzero"/>
	<path id="Vector" d="M20.28 21.58C20.5 21.58 20.67 21.41 20.67 21.19L20.67 1.96C20.67 0.88 19.79 0 18.71 0L1.96 0C0.88 0 0 0.88 0 1.96L0 33.48C0 34.56 0.88 35.44 1.96 35.44L18.71 35.44C19.79 35.44 20.67 34.56 20.67 33.48L20.67 28.69C20.67 28.48 20.5 28.3 20.28 28.3C20.06 28.3 19.88 28.48 19.88 28.69L19.88 29.71L0.78 29.71L0.78 18.03L1.8 19.7C1.86 19.79 1.96 19.86 2.07 19.88C2.09 19.89 2.11 19.89 2.14 19.89C2.22 19.89 2.31 19.86 2.38 19.81L3.63 18.86C3.8 18.73 3.83 18.49 3.7 18.31C3.57 18.14 3.32 18.1 3.15 18.24L2.25 18.92L0.78 16.52L0.78 4.51L19.88 4.51L19.88 10.57L17.05 12.61C16.87 12.73 16.83 12.98 16.96 13.16C17.03 13.26 17.15 13.32 17.28 13.32C17.36 13.32 17.44 13.3 17.51 13.25L19.88 11.54L19.88 21.19C19.88 21.41 20.06 21.58 20.28 21.58ZM19.88 30.5L19.88 33.48C19.88 34.13 19.36 34.65 18.71 34.65L1.96 34.65C1.31 34.65 0.78 34.13 0.78 33.48L0.78 30.5L19.88 30.5ZM0.78 3.73L0.78 1.96C0.78 1.31 1.31 0.78 1.96 0.78L18.71 0.78C19.36 0.78 19.88 1.31 19.88 1.96L19.88 3.73L0.78 3.73Z" fill="#331B3B" fill-opacity="1.000000" fill-rule="nonzero"/>
	<path id="Vector" d="M10.33 34C9.56 34 8.93 33.37 8.93 32.6C8.93 31.83 9.56 31.2 10.33 31.2C11.1 31.2 11.73 31.83 11.73 32.6C11.73 33.37 11.1 34 10.33 34ZM10.33 31.99C10 31.99 9.72 32.26 9.72 32.6C9.72 32.94 10 33.21 10.33 33.21C10.67 33.21 10.94 32.94 10.94 32.6C10.94 32.26 10.67 31.99 10.33 31.99Z" fill="#331B3B" fill-opacity="1.000000" fill-rule="nonzero"/>
	<path id="Vector" d="M12.73 2.62L7.94 2.62C7.72 2.62 7.54 2.44 7.54 2.23C7.54 2.01 7.72 1.83 7.94 1.83L12.73 1.83C12.95 1.83 13.12 2.01 13.12 2.23C13.12 2.44 12.95 2.62 12.73 2.62Z" fill="#331B3B" fill-opacity="1.000000" fill-rule="nonzero"/>
</svg>
