<svg width="44.799988" height="39.181152" viewBox="0 0 44.8 39.1812" fill="none" xmlns="http://www.w3.org/2000/svg" xmlns:xlink="http://www.w3.org/1999/xlink">
	<desc>
			Created with Pixso.
	</desc>
	<defs/>
	<path id="Vector" d="M34.81 39.18L44.8 18.1L44.8 0L24.38 0L24.38 19.2L32.17 19.2L24.38 39.18L34.81 39.18ZM27.43 16.15L27.43 3.04L41.75 3.04L41.75 17.42L32.88 36.13L28.84 36.13L36.63 16.15L27.43 16.15L27.43 16.15Z" fill="#FDC221" fill-opacity="1.000000" fill-rule="nonzero"/>
	<path id="Vector" d="M10.42 39.18L20.41 18.1L20.41 0L0 0L0 19.2L7.79 19.2L0 39.18L10.42 39.18ZM3.04 16.15L3.04 3.04L17.36 3.04L17.36 17.42L8.49 36.13L4.46 36.13L12.25 16.16L3.04 16.16L3.04 16.15Z" fill="#FDC221" fill-opacity="1.000000" fill-rule="nonzero"/>
</svg>
