<svg width="33.478394" height="30.631592" viewBox="0 0 33.4784 30.6316" fill="none" xmlns="http://www.w3.org/2000/svg" xmlns:xlink="http://www.w3.org/1999/xlink">
	<desc>
			Created with Pixso.
	</desc>
	<defs/>
	<path id="Vector" d="M33.47 19.47L6.1e-5 19.47L6.1e-5 2.01C6.1e-5 0.9 0.9 0 2.01 0L31.46 0C32.57 0 33.47 0.9 33.47 2.01L33.47 19.47ZM0.74 18.72L32.73 18.72L32.73 2.01C32.73 1.31 32.16 0.74 31.46 0.74L2.01 0.74C1.31 0.74 0.74 1.31 0.74 2.01L0.74 18.72Z" fill="#331B3B" fill-opacity="1.000000" fill-rule="nonzero"/>
	<path id="Vector" d="M31.46 24.09L2.01 24.09C0.9 24.09 0 23.18 0 22.07L0 18.72L33.47 18.72L33.47 22.07C33.47 23.18 32.57 24.09 31.46 24.09ZM0.74 19.47L0.74 22.07C0.74 22.77 1.31 23.35 2.01 23.35L31.46 23.35C32.16 23.35 32.73 22.77 32.73 22.07L32.73 19.47L0.74 19.47Z" fill="#331B3B" fill-opacity="1.000000" fill-rule="nonzero"/>
	<path id="Vector" d="M21.88 28.69L11.59 28.69C11.43 28.69 11.29 28.59 11.24 28.43C11.19 28.28 11.24 28.11 11.37 28.02C12.78 26.98 13.73 25.39 13.96 23.67C13.98 23.48 14.14 23.35 14.33 23.35L19.14 23.35C19.33 23.35 19.48 23.48 19.51 23.67C19.74 25.39 20.68 26.98 22.1 28.02C22.23 28.11 22.28 28.28 22.23 28.43C22.18 28.59 22.04 28.69 21.88 28.69ZM12.6 27.94L20.87 27.94C19.81 26.9 19.09 25.55 18.82 24.09L14.65 24.09C14.38 25.55 13.66 26.9 12.6 27.94Z" fill="#331B3B" fill-opacity="1.000000" fill-rule="nonzero"/>
	<path id="Vector" d="M22.71 30.63L10.76 30.63C10.02 30.63 9.42 30.03 9.42 29.29C9.42 28.55 10.02 27.94 10.76 27.94L22.71 27.94C23.45 27.94 24.05 28.55 24.05 29.29C24.05 30.03 23.45 30.63 22.71 30.63ZM10.76 28.69C10.43 28.69 10.17 28.96 10.17 29.29C10.17 29.61 10.43 29.88 10.76 29.88L22.71 29.88C23.04 29.88 23.3 29.61 23.3 29.29C23.3 28.96 23.04 28.69 22.71 28.69L10.76 28.69Z" fill="#331B3B" fill-opacity="1.000000" fill-rule="nonzero"/>
	<path id="Vector" d="M17.37 21.78L16.1 21.78C15.9 21.78 15.73 21.61 15.73 21.41C15.73 21.2 15.9 21.03 16.1 21.03L17.37 21.03C17.57 21.03 17.74 21.2 17.74 21.41C17.74 21.61 17.57 21.78 17.37 21.78Z" fill="#331B3B" fill-opacity="1.000000" fill-rule="nonzero"/>
	<path id="Vector" d="M13.49 13.35C12.19 13.35 11.82 12.19 11.52 11.26C11.21 10.31 10.99 9.73 10.3 9.73C10.1 9.73 9.93 9.56 9.93 9.36C9.93 9.15 10.1 8.99 10.3 8.99C10.99 8.99 11.21 8.4 11.52 7.45C11.82 6.52 12.19 5.37 13.49 5.37C13.7 5.37 13.86 5.53 13.86 5.74C13.86 5.95 13.7 6.11 13.49 6.11C12.77 6.11 12.54 6.71 12.23 7.68C12.04 8.27 11.82 8.95 11.35 9.36C11.82 9.77 12.04 10.45 12.23 11.04C12.54 12.01 12.77 12.61 13.49 12.61C13.7 12.61 13.86 12.77 13.86 12.98C13.86 13.18 13.7 13.35 13.49 13.35Z" fill="#331B3B" fill-opacity="1.000000" fill-rule="nonzero"/>
	<path id="Vector" d="M19.98 13.35C19.77 13.35 19.6 13.18 19.6 12.98C19.6 12.77 19.77 12.61 19.98 12.61C20.7 12.61 20.93 12.01 21.24 11.04C21.43 10.45 21.65 9.77 22.12 9.36C21.65 8.95 21.43 8.27 21.24 7.68C20.93 6.71 20.7 6.11 19.98 6.11C19.77 6.11 19.6 5.95 19.6 5.74C19.6 5.53 19.77 5.37 19.98 5.37C21.28 5.37 21.65 6.52 21.95 7.45C22.26 8.4 22.48 8.99 23.16 8.99C23.37 8.99 23.54 9.15 23.54 9.36C23.54 9.56 23.37 9.73 23.16 9.73C22.48 9.73 22.26 10.31 21.95 11.26C21.65 12.19 21.28 13.35 19.98 13.35Z" fill="#331B3B" fill-opacity="1.000000" fill-rule="nonzero"/>
	<path id="Vector" d="M15.27 14.21C15.23 14.21 15.19 14.21 15.15 14.19C14.96 14.13 14.85 13.92 14.92 13.72L17.92 4.76C17.99 4.56 18.2 4.46 18.4 4.52C18.59 4.59 18.7 4.8 18.63 4.99L15.62 13.96C15.57 14.12 15.43 14.21 15.27 14.21Z" fill="#331B3B" fill-opacity="1.000000" fill-rule="nonzero"/>
</svg>
