<svg width="29.539673" height="29.539673" viewBox="0 0 29.5397 29.5397" fill="none" xmlns="http://www.w3.org/2000/svg" xmlns:xlink="http://www.w3.org/1999/xlink">
	<desc>
			Created with Pixso.
	</desc>
	<defs/>
	<path id="Vector" d="M14.76 29.53C6.62 29.53 0 22.91 0 14.76C0 6.62 6.62 0 14.76 0C22.91 0 29.53 6.62 29.53 14.76C29.53 22.91 22.91 29.53 14.76 29.53ZM15.09 20.07C17.22 20.1 19.28 20.47 21.15 21.12C21.62 19.3 21.89 17.26 21.92 15.09L15.09 15.09L15.09 20.07ZM15.09 20.72L15.09 28.86C17.61 28.64 19.8 25.83 20.98 21.75C19.17 21.11 17.16 20.76 15.09 20.72ZM14.44 20.72C12.37 20.76 10.36 21.11 8.55 21.75C9.73 25.83 11.92 28.64 14.44 28.86L14.44 20.72ZM14.44 20.07L14.44 15.09L7.61 15.09C7.64 17.26 7.91 19.3 8.38 21.12C10.25 20.47 12.31 20.1 14.44 20.07ZM6.95 15.09L0.66 15.09C0.73 18.32 1.89 21.27 3.78 23.62C4.94 22.69 6.28 21.92 7.77 21.34C7.27 19.45 6.98 17.33 6.95 15.09ZM6.95 14.44C6.98 12.2 7.27 10.08 7.77 8.19C6.28 7.61 4.94 6.84 3.78 5.91C1.89 8.26 0.73 11.21 0.66 14.44L6.95 14.44ZM7.61 14.44L14.44 14.44L14.44 9.46C12.31 9.43 10.25 9.06 8.38 8.41C7.91 10.23 7.64 12.27 7.61 14.44ZM14.44 8.81L14.44 0.67C11.92 0.89 9.73 3.7 8.55 7.78C10.36 8.42 12.37 8.77 14.44 8.81ZM15.09 8.81C17.16 8.77 19.17 8.42 20.98 7.78C19.8 3.7 17.61 0.89 15.09 0.67L15.09 8.81ZM15.09 9.46L15.09 14.44L21.92 14.44C21.89 12.27 21.62 10.23 21.15 8.41C19.28 9.06 17.22 9.43 15.09 9.46ZM22.58 14.44L28.87 14.44C28.8 11.21 27.64 8.26 25.75 5.91C24.59 6.84 23.24 7.61 21.76 8.19C22.26 10.08 22.55 12.2 22.58 14.44ZM22.58 15.09C22.55 17.33 22.26 19.45 21.76 21.34C23.24 21.92 24.59 22.69 25.75 23.62C27.64 21.27 28.8 18.32 28.87 15.09L22.58 15.09ZM25.32 24.12C24.24 23.25 22.97 22.53 21.58 21.98C20.68 25.01 19.23 27.39 17.48 28.61C20.57 28.01 23.31 26.39 25.32 24.12ZM12.05 28.61C10.3 27.39 8.85 25.01 7.95 21.98C6.56 22.53 5.29 23.25 4.21 24.12C6.22 26.39 8.96 28.01 12.05 28.61ZM4.21 5.41C5.29 6.28 6.56 7 7.95 7.55C8.85 4.52 10.3 2.14 12.05 0.92C8.96 1.52 6.22 3.14 4.21 5.41ZM17.48 0.92C19.23 2.14 20.68 4.52 21.58 7.55C22.97 7 24.24 6.28 25.32 5.41C23.31 3.14 20.57 1.52 17.48 0.92Z" fill="#000000" fill-opacity="1.000000" fill-rule="nonzero"/>
</svg>
