<svg width="477.078949" height="718.540405" viewBox="0 0 477.079 718.54" fill="none" xmlns="http://www.w3.org/2000/svg" xmlns:xlink="http://www.w3.org/1999/xlink">
	<desc>
			Created with Pixso.
	</desc>
	<defs/>
	<path id="Vector 9" d="M368.05 129.75C353.31 206.75 337.36 378.77 391.45 450.84C462.96 517.43 555.92 663.29 355.69 713.95C210.72 750.63 -90.66 536.1 27.4 185.05C64.24 101.37 172.46 -45.03 319.57 14.28C321.78 15.17 323.73 16.4 325.77 17.6L329.28 19.48C332.35 21.91 336.41 24.17 339.96 27.65C361.17 48.46 386.76 86.96 368.05 129.75Z" fill="#FDC021" fill-opacity="1.000000" fill-rule="nonzero"/>
	<path id="Vector 9" d="M319.57 14.28L329.28 19.48C332.35 21.91 336.41 24.17 339.96 27.65C361.17 48.46 386.76 86.96 368.05 129.75C353.31 206.75 337.36 378.77 391.45 450.84C462.96 517.43 555.92 663.29 355.69 713.95C210.72 750.63 -90.66 536.1 27.4 185.05C64.24 101.37 172.46 -45.03 319.57 14.28C323 15.66 325.81 17.87 329.28 19.48" stroke="#FDC221" stroke-opacity="1.000000" stroke-width="1.000000"/>
</svg>
