<svg width="655.551270" height="593.564880" viewBox="0 0 655.551 593.565" fill="none" xmlns="http://www.w3.org/2000/svg" xmlns:xlink="http://www.w3.org/1999/xlink">
	<desc>
			Created with Pixso.
	</desc>
	<defs/>
	<path id="Vector 9" d="M237.25 58.35C277.26 125.77 379.35 265.14 467.62 283.24C565.31 285.7 731.6 333.28 615.27 503.94C531.04 627.5 163.18 666.67 18.86 325.57C-9.02 238.5 -25.05 57.15 124.42 4.03C126.66 3.23 128.94 2.86 131.25 2.41L135.13 1.49C139.04 1.27 143.58 0.27 148.54 0.53C178.21 2.05 222.9 13.91 237.25 58.35Z" fill="#FDC021" fill-opacity="1.000000" fill-rule="nonzero"/>
	<path id="Vector 9" d="M124.42 4.03L135.13 1.49C139.04 1.27 143.58 0.27 148.54 0.53C178.21 2.05 222.9 13.91 237.25 58.35C277.26 125.77 379.35 265.14 467.62 283.24C565.31 285.7 731.6 333.28 615.27 503.94C531.04 627.5 163.18 666.67 18.86 325.57C-9.02 238.5 -25.05 57.15 124.42 4.03C127.9 2.79 131.47 2.59 135.13 1.49" stroke="#FDC221" stroke-opacity="1.000000" stroke-width="1.000000"/>
</svg>
