<svg width="532.000000" height="498.000000" viewBox="0 0 532 498" fill="none" xmlns="http://www.w3.org/2000/svg" xmlns:xlink="http://www.w3.org/1999/xlink">
	<desc>
			Created with Pixso.
	</desc>
	<defs/>
	<path id="Ellipse 13" d="M242.41 0.19C243.75 0.14 245.09 0.1 246.44 0.07L246.5 2.06L242.47 2.19L242.41 0.19ZM234.39 0.63C235.72 0.53 237.05 0.45 238.39 0.38L238.51 2.37L234.51 2.62L234.39 0.63ZM226.43 1.31C227.75 1.17 229.08 1.05 230.4 0.94L230.59 2.93L226.62 3.3L226.43 1.31ZM218.4 2.25C219.73 2.07 221.07 1.9 222.41 1.75L222.66 3.73L218.65 4.23L218.4 2.25ZM210.45 3.44C211.77 3.22 213.09 3.01 214.42 2.81L214.73 4.79L210.76 5.41L210.45 3.44ZM202.58 4.86C203.88 4.61 205.19 4.36 206.5 4.12L206.88 6.08L202.95 6.83L202.58 4.86ZM194.69 6.55C196 6.25 197.31 5.96 198.63 5.68L199.07 7.63L195.13 8.51L194.69 6.55ZM186.88 8.49C188.18 8.15 189.47 7.81 190.78 7.49L191.27 9.43L187.38 10.43L186.88 8.49ZM179.17 10.66C180.45 10.28 181.73 9.91 183.02 9.55L183.57 11.47L179.73 12.58L179.17 10.66ZM171.49 13.09C172.77 12.66 174.05 12.25 175.33 11.84L175.95 13.74L172.11 14.99L171.49 13.09ZM163.9 15.76C165.16 15.29 166.42 14.84 167.69 14.4L168.36 16.28L164.58 17.64L163.9 15.76ZM156.43 18.66C157.66 18.16 158.91 17.66 160.15 17.18L160.89 19.04L157.17 20.52L156.43 18.66ZM149.02 21.8C150.25 21.26 151.48 20.72 152.72 20.2L153.52 22.03L149.82 23.64L149.02 21.8ZM141.72 25.18C142.92 24.6 144.14 24.03 145.35 23.46L146.21 25.27L142.57 26.99L141.72 25.18ZM134.55 28.78C135.73 28.16 136.92 27.55 138.12 26.95L139.03 28.73L135.46 30.56L134.55 28.78ZM127.48 32.62C128.65 31.96 129.82 31.31 131 30.67L131.97 32.42L128.45 34.37L127.48 32.62ZM120.53 36.67C121.68 35.98 122.83 35.29 123.99 34.62L125.01 36.34L121.55 38.39L120.53 36.67ZM113.73 40.94C114.85 40.21 115.98 39.49 117.11 38.78L118.19 40.47L114.81 42.63L113.73 40.94ZM107.06 45.43C108.16 44.66 109.27 43.91 110.38 43.16L111.5 44.82Q109.84 45.93 108.2 47.07L107.06 45.43ZM100.53 50.13C101.61 49.33 102.69 48.54 103.78 47.75L104.94 49.38Q103.33 50.54 101.73 51.73L100.53 50.13ZM94.16 55.03C95.21 54.19 96.27 53.37 97.33 52.55L98.55 54.14Q96.97 55.35 95.41 56.59L94.16 55.03ZM87.95 60.13C88.97 59.26 90 58.4 91.04 57.55L92.31 59.1Q90.77 60.36 89.24 61.65L87.95 60.13ZM81.9 65.42C82.9 64.53 83.9 63.64 84.9 62.75L86.22 64.26Q84.72 65.57 83.24 66.91L81.9 65.42ZM76.03 70.91C76.99 69.98 77.96 69.06 78.94 68.14L80.31 69.61Q78.85 70.97 77.42 72.35L76.03 70.91ZM70.33 76.58C71.26 75.62 72.21 74.66 73.16 73.72L74.57 75.14Q73.15 76.54 71.76 77.97L70.33 76.58ZM64.81 82.43C65.72 81.44 66.63 80.46 67.55 79.48L69 80.85Q67.63 82.3 66.29 83.78L64.81 82.43ZM59.49 88.45C60.36 87.43 61.24 86.42 62.13 85.42L63.63 86.74Q62.3 88.23 61.01 89.75L59.49 88.45ZM54.36 94.64C55.2 93.59 56.04 92.55 56.9 91.52L58.44 92.8Q57.17 94.33 55.92 95.89L54.36 94.64ZM49.43 100.99C50.24 99.91 51.05 98.85 51.87 97.79L53.45 99.02Q52.23 100.59 51.03 102.19L49.43 100.99ZM44.71 107.49C45.48 106.4 46.26 105.3 47.04 104.22L48.66 105.39Q47.49 107.01 46.34 108.64L44.71 107.49ZM40.2 114.14C40.93 113.02 41.67 111.91 42.42 110.8L44.08 111.92Q42.96 113.57 41.87 115.24L40.2 114.14ZM35.91 120.94C36.6 119.79 37.31 118.65 38.03 117.52L39.72 118.59Q38.65 120.28 37.61 121.98L35.91 120.94ZM31.83 127.87C32.49 126.71 33.16 125.54 33.84 124.39L35.57 125.39L33.56 128.87L31.83 127.87ZM27.99 134.93C28.61 133.74 29.24 132.56 29.88 131.39L31.64 132.33L29.76 135.87L27.99 134.93ZM24.38 142.11C24.96 140.9 25.56 139.7 26.16 138.5L27.95 139.39L26.17 142.99L24.38 142.11ZM21 149.41C21.54 148.18 22.1 146.96 22.66 145.74L24.48 146.57L22.82 150.24L21 149.41ZM17.87 156.81C18.37 155.57 18.88 154.33 19.4 153.1L21.25 153.87L19.72 157.57L17.87 156.81ZM14.98 164.3C15.44 163.04 15.91 161.79 16.39 160.54L18.27 161.24L16.85 165L14.98 164.3ZM12.33 171.9C12.75 170.63 13.18 169.35 13.63 168.09L15.52 168.73L14.23 172.55L12.33 171.9ZM9.94 179.57C10.32 178.29 10.7 177.01 11.1 175.74L13.01 176.32L11.86 180.15L9.94 179.57ZM7.81 187.3C8.14 186.01 8.49 184.71 8.84 183.42L10.77 183.94L9.74 187.82L7.81 187.3ZM5.92 195.14C6.21 193.82 6.52 192.51 6.83 191.21L8.78 191.66L7.87 195.59L5.92 195.14ZM4.29 203C4.54 201.69 4.8 200.39 5.07 199.09L7.03 199.47L6.26 203.39L4.29 203ZM2.93 210.9C3.14 209.58 3.35 208.26 3.58 206.94L5.55 207.27L4.9 211.23L2.93 210.9ZM1.82 218.89C1.99 217.55 2.16 216.22 2.34 214.89L4.33 215.14L3.81 219.15L1.82 218.89ZM0.98 226.88C1.1 225.56 1.22 224.23 1.36 222.91L3.35 223.1L2.97 227.08L0.98 226.88ZM0.39 234.87C0.47 233.53 0.56 232.2 0.65 230.87L2.65 231L2.39 235L0.39 234.87ZM0.07 242.92C0.1 241.57 0.15 240.22 0.2 238.88L2.2 238.95L2.07 242.98L0.07 242.92ZM0 251.03C0 250.35 0 249.67 0 249C0 248.32 0 247.64 0 246.97L2 246.97L2 248.99L2 251.02L0 251.03ZM0.2 259.11C0.15 257.77 0.1 256.42 0.07 255.07L2.07 255.01L2.2 259.04L0.2 259.11ZM0.65 267.12C0.56 265.79 0.47 264.46 0.39 263.12L2.39 263L2.65 267L0.65 267.12ZM1.36 275.08C1.22 273.76 1.1 272.44 0.98 271.11L2.97 270.91L3.35 274.89L1.36 275.08ZM2.34 283.1C2.16 281.78 1.99 280.44 1.82 279.1L3.81 278.85L4.33 282.85L2.34 283.1ZM3.58 291.05C3.35 289.73 3.14 288.41 2.93 287.09L4.9 286.76L5.55 290.72L3.58 291.05ZM5.07 298.91C4.8 297.6 4.54 296.3 4.29 294.99L6.26 294.6L7.03 298.52L5.07 298.91ZM6.83 306.78C6.52 305.48 6.21 304.17 5.92 302.85L7.87 302.4L8.78 306.33L6.83 306.78ZM8.84 314.57C8.49 313.28 8.14 311.98 7.81 310.69L9.74 310.17L10.77 314.05L8.84 314.57ZM11.1 322.25C10.7 320.98 10.32 319.7 9.94 318.42L11.86 317.84L13.01 321.67L11.1 322.25ZM13.63 329.9C13.18 328.64 12.75 327.36 12.33 326.09L14.23 325.45L15.52 329.26L13.63 329.9ZM16.39 337.45C15.91 336.2 15.44 334.95 14.98 333.69L16.85 332.99L18.27 336.75L16.39 337.45ZM19.4 344.89C18.88 343.66 18.37 342.42 17.87 341.19L19.72 340.42L21.25 344.12L19.4 344.89ZM22.66 352.25C22.1 351.03 21.54 349.81 21 348.58L22.82 347.75L24.48 351.42L22.66 352.25ZM26.16 359.49C25.56 358.29 24.96 357.09 24.38 355.89L26.17 355L27.95 358.61L26.16 359.49ZM29.88 366.6C29.24 365.43 28.61 364.25 27.99 363.06L29.76 362.12L31.64 365.66L29.88 366.6ZM33.84 373.6C33.16 372.45 32.49 371.28 31.83 370.12L33.56 369.12L35.57 372.6L33.84 373.6ZM38.03 380.47C37.31 379.34 36.6 378.2 35.91 377.05L37.61 376.01Q38.65 377.71 39.72 379.4L38.03 380.47ZM42.42 387.19C41.67 386.08 40.93 384.97 40.2 383.85L41.87 382.75Q42.96 384.42 44.08 386.07L42.42 387.19ZM47.04 393.77C46.26 392.69 45.48 391.6 44.71 390.5L46.34 389.35Q47.49 390.98 48.66 392.6L47.04 393.77ZM51.87 400.2C51.05 399.14 50.24 398.08 49.43 397.01L51.03 395.8Q52.23 397.4 53.45 398.97L51.87 400.2ZM56.9 406.47C56.04 405.44 55.2 404.4 54.36 403.36L55.92 402.1Q57.17 403.66 58.44 405.19L56.9 406.47ZM62.13 412.57C61.24 411.57 60.36 410.56 59.49 409.54L61.01 408.24Q62.3 409.76 63.63 411.25L62.13 412.57ZM67.55 418.51C66.63 417.54 65.72 416.55 64.81 415.56L66.29 414.22Q67.63 415.69 69 417.14L67.55 418.51ZM73.16 424.27C72.21 423.33 71.26 422.37 70.33 421.41L71.76 420.02Q73.15 421.45 74.57 422.85L73.16 424.27ZM78.94 429.85C77.96 428.93 76.99 428.01 76.03 427.08L77.42 425.64Q78.85 427.02 80.31 428.38L78.94 429.85ZM84.9 435.24C83.9 434.35 82.9 433.46 81.9 432.57L83.24 431.08Q84.72 432.42 86.22 433.73L84.9 435.24ZM91.04 440.44C90 439.59 88.97 438.73 87.95 437.86L89.24 436.34Q90.77 437.63 92.31 438.89L91.04 440.44ZM97.33 445.44C96.27 444.62 95.21 443.8 94.16 442.96L95.41 441.4Q96.97 442.64 98.55 443.85L97.33 445.44ZM103.78 450.24C102.69 449.45 101.61 448.66 100.53 447.86L101.73 446.26Q103.33 447.45 104.94 448.61L103.78 450.24ZM110.38 454.83C109.27 454.08 108.16 453.33 107.06 452.56L108.2 450.92Q109.84 452.06 111.5 453.17L110.38 454.83ZM117.11 459.21C115.98 458.5 114.85 457.78 113.73 457.05L114.81 455.36L118.19 457.52L117.11 459.21ZM123.99 463.37C122.83 462.7 121.68 462.01 120.53 461.32L121.55 459.6L125.01 461.65L123.99 463.37ZM131 467.32C129.82 466.68 128.65 466.03 127.48 465.37L128.45 463.62L131.97 465.57L131 467.32ZM138.12 471.04C136.92 470.44 135.73 469.83 134.55 469.21L135.46 467.43L139.03 469.26L138.12 471.04ZM145.35 474.53C144.14 473.96 142.92 473.39 141.72 472.81L142.57 471L146.21 472.72L145.35 474.53ZM152.72 477.79C151.48 477.27 150.25 476.73 149.02 476.19L149.82 474.35L153.52 475.96L152.72 477.79ZM160.15 480.81C158.91 480.33 157.66 479.84 156.43 479.33L157.17 477.47L160.89 478.95L160.15 480.81ZM167.69 483.6C166.42 483.15 165.16 482.7 163.9 482.23L164.58 480.35L168.36 481.71L167.69 483.6ZM175.33 486.15C174.05 485.74 172.77 485.33 171.49 484.9L172.11 483L175.95 484.25L175.33 486.15ZM183.02 488.44C181.73 488.08 180.45 487.71 179.17 487.33L179.73 485.41L183.57 486.52L183.02 488.44ZM190.78 490.5C189.47 490.18 188.18 489.84 186.88 489.5L187.38 487.56L191.27 488.56L190.78 490.5ZM198.63 492.31C197.31 492.03 196 491.74 194.69 491.44L195.13 489.48L199.07 490.36L198.63 492.31ZM206.5 493.87C205.19 493.63 203.88 493.38 202.58 493.13L202.95 491.16L206.88 491.91L206.5 493.87ZM214.42 495.18C213.09 494.98 211.77 494.77 210.45 494.56L210.76 492.58L214.73 493.2L214.42 495.18ZM222.41 496.24C221.07 496.09 219.73 495.92 218.4 495.74L218.65 493.76L222.66 494.26L222.41 496.24ZM230.4 497.05C229.08 496.94 227.75 496.82 226.43 496.68L226.62 494.69L230.59 495.06L230.4 497.05ZM238.39 497.61C237.05 497.54 235.72 497.46 234.39 497.36L234.51 495.37L238.51 495.62L238.39 497.61ZM246.44 497.92C245.09 497.89 243.75 497.85 242.41 497.8L242.47 495.8L246.5 495.93L246.44 497.92ZM254.56 497.99C253.88 497.99 253.2 498 252.52 498C251.84 498 251.17 497.99 250.49 497.99L250.5 495.99L252.51 496L254.55 495.99L254.56 497.99ZM262.69 497.75C261.34 497.81 259.98 497.87 258.63 497.91L258.57 495.91Q260.58 495.85 262.6 495.75L262.69 497.75ZM270.82 497.2C269.46 497.32 268.11 497.42 266.76 497.51L266.6 495.52L270.66 495.2L270.82 497.2ZM278.92 496.35C277.57 496.51 276.22 496.67 274.87 496.81L274.64 494.82L278.69 494.36L278.92 496.35ZM286.97 495.2C285.63 495.42 284.29 495.62 282.95 495.81L282.65 493.83L286.67 493.22L286.97 495.2ZM294.99 493.77C293.66 494.03 292.32 494.28 290.99 494.52L290.62 492.55L294.62 491.8L294.99 493.77ZM302.95 492.06C301.63 492.37 300.3 492.66 298.97 492.95L298.54 491L302.51 490.11L302.95 492.06ZM310.83 490.09C309.52 490.44 308.21 490.78 306.9 491.1L306.4 489.17L310.32 488.15L310.83 490.09ZM318.65 487.85C317.35 488.25 316.05 488.63 314.74 489L314.18 487.08L318.08 485.94L318.65 487.85ZM326.42 485.36C325.13 485.8 323.84 486.23 322.54 486.64L321.92 484.74L325.8 483.46L326.42 485.36ZM334.1 482.64C332.83 483.11 331.56 483.57 330.29 484.02L329.6 482.14L333.41 480.76L334.1 482.64ZM341.67 479.69C340.41 480.2 339.15 480.7 337.89 481.19L337.15 479.33L340.93 477.83L341.67 479.69ZM349.17 476.5C347.93 477.05 346.68 477.59 345.43 478.12L344.63 476.29L348.38 474.67L349.17 476.5ZM356.59 473.1C355.37 473.68 354.14 474.26 352.9 474.82L352.06 473.01L355.75 471.29L356.59 473.1ZM363.87 469.5C362.67 470.12 361.46 470.73 360.24 471.33L359.35 469.54L362.98 467.72L363.87 469.5ZM371.08 465.7C369.88 466.35 368.69 466.99 367.49 467.63L366.54 465.86L370.13 463.93L371.08 465.7ZM378.19 461.68C377.01 462.37 375.83 463.05 374.65 463.71L373.65 461.98L377.2 459.95L378.19 461.68ZM385.16 457.5C384.01 458.22 382.85 458.92 381.69 459.61L380.65 457.91L384.12 455.79L385.16 457.5ZM392.03 453.14C390.89 453.88 389.75 454.62 388.61 455.34L387.53 453.66L390.95 451.46L392.03 453.14ZM398.8 448.58C397.68 449.36 396.56 450.13 395.43 450.88L394.3 449.23L397.67 446.93L398.8 448.58ZM405.44 443.87C404.35 444.67 403.25 445.46 402.15 446.24L400.98 444.62L404.28 442.24L405.44 443.87ZM411.96 438.99C410.88 439.82 409.8 440.64 408.71 441.45L407.51 439.86L410.75 437.4L411.96 438.99ZM418.36 433.95C417.3 434.8 416.24 435.65 415.17 436.49L413.92 434.93L417.11 432.39L418.36 433.95ZM424.63 428.74C423.6 429.62 422.56 430.5 421.51 431.37L420.23 429.83L423.35 427.21L424.63 428.74ZM430.77 423.4C429.76 424.3 428.74 425.2 427.72 426.09L426.4 424.59L429.45 421.9L430.77 423.4ZM436.78 417.9C435.79 418.83 434.8 419.75 433.79 420.67L432.44 419.2L435.42 416.43L436.78 417.9ZM442.66 412.26C441.69 413.21 440.72 414.16 439.74 415.1L438.35 413.66L439.85 412.21L441.26 410.83L442.66 412.26ZM448.4 406.48C447.45 407.45 446.5 408.42 445.55 409.39L444.12 407.99L446.97 405.08L448.4 406.48ZM454 400.55C453.08 401.55 452.15 402.54 451.22 403.53L449.75 402.17L452.53 399.19L454 400.55ZM459.44 394.5C458.55 395.52 457.65 396.54 456.74 397.55L455.24 396.22L457.95 393.18L459.44 394.5ZM464.74 388.32C463.87 389.36 462.99 390.4 462.11 391.43L460.58 390.14L463.22 387.03L464.74 388.32ZM469.9 382C469.05 383.06 468.2 384.12 467.34 385.18L465.78 383.92L468.34 380.75L469.9 382ZM474.89 375.57C474.07 376.65 473.25 377.72 472.41 378.8L470.83 377.58L473.3 374.35L474.89 375.57ZM479.71 369.02C478.92 370.12 478.12 371.22 477.32 372.31L475.7 371.13L478.09 367.84L479.71 369.02ZM484.38 362.33C483.61 363.45 482.84 364.57 482.06 365.69L480.42 364.55L482.73 361.19L484.38 362.33ZM488.87 355.52C488.14 356.66 487.4 357.8 486.65 358.94L484.97 357.84L487.2 354.43L488.87 355.52ZM493.17 348.63C492.47 349.78 491.76 350.94 491.05 352.09L489.34 351.04L491.47 347.58L493.17 348.63ZM497.3 341.6C496.63 342.79 495.94 343.97 495.25 345.14L493.52 344.14L495.57 340.6L497.3 341.6ZM501.25 334.46C500.61 335.65 499.96 336.85 499.3 338.04L497.54 337.08L499.49 333.5L501.25 334.46ZM504.98 327.23C504.38 328.44 503.77 329.65 503.14 330.85L501.36 329.95L503.2 326.32L504.98 327.23ZM508.51 319.91C507.94 321.14 507.36 322.37 506.77 323.59L504.96 322.73L506.7 319.06L508.51 319.91ZM511.85 312.45C511.31 313.7 510.76 314.94 510.21 316.19L508.37 315.39L510.01 311.64L511.85 312.45ZM514.95 304.92C514.45 306.18 513.94 307.44 513.43 308.69L511.57 307.94L513.09 304.17L514.95 304.92ZM517.81 297.33C517.36 298.6 516.89 299.87 516.41 301.13L514.53 300.44L515.94 296.64L517.81 297.33ZM520.46 289.6C520.04 290.89 519.61 292.19 519.17 293.48L517.27 292.84L518.56 288.97L520.46 289.6ZM522.86 281.81C522.48 283.11 522.09 284.41 521.69 285.71L519.78 285.14L520.94 281.23L522.86 281.81ZM524.99 273.97C524.65 275.28 524.31 276.59 523.95 277.89L522.02 277.38L523.05 273.46L524.99 273.97ZM526.86 266.05C526.57 267.38 526.27 268.71 525.95 270.03L524 269.59L524.91 265.61L526.86 266.05ZM528.45 258.08C528.21 259.41 527.96 260.74 527.69 262.07L525.73 261.7L526.49 257.7L528.45 258.08ZM529.77 250.04C529.57 251.38 529.37 252.72 529.15 254.06L527.17 253.76L527.79 249.73L529.77 250.04ZM530.79 241.96C530.64 243.31 530.48 244.66 530.31 246.01L528.33 245.78L528.8 241.73L530.79 241.96ZM531.5 233.85C531.41 235.21 531.3 236.56 531.18 237.91L529.19 237.73Q529.37 235.72 529.51 233.72L531.5 233.85ZM531.9 225.72C531.86 227.08 531.81 228.43 531.74 229.79L529.74 229.69Q529.84 227.67 529.9 225.66L531.9 225.72ZM531.99 217.58C531.99 218.26 532 218.94 532 219.62C532 220.3 531.99 220.97 531.99 221.65L529.99 221.64L530 219.63L529.99 217.59L531.99 217.58ZM531.74 209.53C531.81 210.86 531.86 212.2 531.9 213.54L529.9 213.6Q529.84 211.61 529.74 209.63L531.74 209.53ZM531.17 201.49C531.29 202.82 531.4 204.17 531.5 205.52L529.5 205.66Q529.36 203.66 529.17 201.67L531.17 201.49ZM530.26 193.51C530.44 194.83 530.6 196.15 530.75 197.49L528.77 197.71Q528.54 195.74 528.28 193.77L530.26 193.51ZM529.01 185.54C529.24 186.85 529.46 188.17 529.67 189.5L527.7 189.81Q527.39 187.84 527.04 185.89L529.01 185.54ZM527.41 177.64C527.71 178.95 527.99 180.27 528.25 181.59L526.29 181.99Q525.9 180.02 525.46 178.08L527.41 177.64ZM525.47 169.83C525.82 171.12 526.16 172.42 526.49 173.72L524.54 174.21Q524.07 172.28 523.54 170.36L525.47 169.83ZM523.18 162.06C523.59 163.34 523.98 164.63 524.37 165.93L522.45 166.49Q521.88 164.58 521.27 162.67L523.18 162.06ZM520.56 154.45C521.02 155.7 521.47 156.97 521.91 158.24L520.02 158.89Q519.62 157.73 519.21 156.58Q518.95 155.86 518.68 155.14L520.56 154.45ZM517.62 146.99C518.13 148.22 518.64 149.46 519.13 150.71L517.27 151.44Q516.54 149.59 515.77 147.76L517.62 146.99ZM514.33 139.61C514.9 140.83 515.46 142.05 516.01 143.28L514.19 144.09Q513.37 142.27 512.52 140.46L514.33 139.61ZM510.74 132.41C511.36 133.59 511.97 134.78 512.57 135.99L510.78 136.88Q509.89 135.1 508.96 133.34L510.74 132.41ZM506.84 125.37C507.51 126.53 508.18 127.69 508.83 128.87L507.08 129.84Q506.11 128.1 505.11 126.37L506.84 125.37ZM502.65 118.49C503.37 119.62 504.08 120.76 504.78 121.91L503.07 122.95Q502.03 121.25 500.96 119.57L502.65 118.49ZM498.17 111.79C498.94 112.89 499.7 114 500.44 115.12L498.78 116.23Q497.67 114.58 496.53 112.94L498.17 111.79ZM493.43 105.28C494.24 106.35 495.04 107.42 495.83 108.51L494.21 109.68Q493.04 108.08 491.83 106.49L493.43 105.28ZM488.44 98.97C489.29 100.01 490.13 101.05 490.96 102.1L489.4 103.34Q488.16 101.78 486.89 100.24L488.44 98.97ZM483.19 92.84C484.09 93.85 484.97 94.86 485.85 95.88L484.33 97.18Q483.03 95.67 481.7 94.17L483.19 92.84ZM477.73 86.92C478.66 87.89 479.57 88.86 480.48 89.84L479.01 91.2Q477.67 89.74 476.29 88.3L477.73 86.92ZM472.07 81.21C473.03 82.15 473.99 83.09 474.93 84.05L473.51 85.45Q472.11 84.04 470.68 82.65L472.07 81.21ZM466.18 75.69C467.18 76.59 468.17 77.51 469.15 78.43L467.78 79.89Q466.33 78.52 464.84 77.17L466.18 75.69ZM460.13 70.38C461.15 71.25 462.16 72.12 463.16 72.99L461.84 74.5Q460.35 73.2 458.83 71.91L460.13 70.38ZM453.91 65.29C454.96 66.12 456 66.97 457.04 67.81L455.77 69.36Q454.23 68.1 452.66 66.86L453.91 65.29ZM447.49 60.38C448.58 61.18 449.65 61.99 450.72 62.81L449.51 64.4Q447.92 63.18 446.3 61.98L447.49 60.38ZM440.95 55.69C442.05 56.45 443.14 57.22 444.22 57.99L443.07 59.63L439.8 57.32L440.95 55.69ZM434.28 51.2C435.4 51.94 436.52 52.68 437.63 53.42L436.53 55.09L433.17 52.87L434.28 51.2ZM427.44 46.9C428.59 47.6 429.74 48.31 430.88 49.03L429.82 50.73L426.39 48.6L427.44 46.9ZM420.5 42.81C421.66 43.47 422.81 44.14 423.96 44.82L422.96 46.55L419.5 44.54L420.5 42.81ZM413.46 38.92C414.65 39.56 415.83 40.2 417 40.84L416.05 42.6L412.51 40.68L413.46 38.92ZM406.29 35.21C407.5 35.82 408.7 36.43 409.89 37.05L408.99 38.83L405.38 37L406.29 35.21ZM399.03 31.7C400.24 32.27 401.45 32.84 402.65 33.43L401.79 35.23L398.17 33.51L399.03 31.7ZM391.71 28.4C392.94 28.93 394.16 29.48 395.38 30.03L394.57 31.86L390.9 30.23L391.71 28.4ZM384.27 25.27C385.52 25.77 386.76 26.29 388 26.81L387.24 28.66L383.51 27.11L384.27 25.27ZM376.75 22.32C378.01 22.8 379.26 23.28 380.51 23.77L379.79 25.63L376.04 24.19L376.75 22.32ZM369.2 19.58C370.47 20.02 371.73 20.47 372.99 20.93L372.32 22.81L368.53 21.46L369.2 19.58ZM361.56 17.01C362.84 17.42 364.12 17.84 365.39 18.27L364.77 20.17L360.93 18.91L361.56 17.01ZM353.84 14.62C355.13 15 356.42 15.39 357.71 15.79L357.13 17.7L353.26 16.53L353.84 14.62ZM346.11 12.42C347.41 12.77 348.7 13.13 349.99 13.5L349.45 15.43L345.58 14.35L346.11 12.42ZM338.31 10.4C339.62 10.72 340.92 11.05 342.22 11.39L341.73 13.33L337.82 12.34L338.31 10.4ZM330.45 8.56C331.76 8.85 333.08 9.15 334.39 9.46L333.94 11.41L330 10.5L330.45 8.56ZM322.58 6.9C323.9 7.16 325.21 7.43 326.52 7.7L326.12 9.66L322.18 8.86L322.58 6.9ZM314.66 5.42C315.99 5.65 317.31 5.89 318.63 6.13L318.27 8.1L314.31 7.38L314.66 5.42ZM306.7 4.11C308.03 4.31 309.36 4.52 310.69 4.74L310.37 6.72L306.39 6.08L306.7 4.11ZM298.73 2.98C300.06 3.16 301.38 3.34 302.71 3.52L302.44 5.51L298.46 4.97L298.73 2.98ZM290.73 2.04C292.06 2.18 293.4 2.33 294.73 2.49L294.51 4.48L290.5 4.03L290.73 2.04ZM282.7 1.27C284.04 1.38 285.38 1.5 286.72 1.63L286.54 3.62L282.52 3.26L282.7 1.27ZM274.66 0.68C276 0.76 277.34 0.86 278.68 0.95L278.55 2.95L274.53 2.68L274.66 0.68ZM266.62 0.27C267.96 0.33 269.3 0.39 270.64 0.46L270.55 2.45L266.53 2.27L266.62 0.27ZM258.56 0.05C259.91 0.07 261.25 0.1 262.59 0.14L262.55 2.14L258.52 2.05L258.56 0.05ZM254.54 0L254.53 2L252.53 2L250.5 2L250.49 0C251.17 0 251.84 0 252.52 0C253.19 0 253.86 0 254.54 0Z" fill="#000000" fill-opacity="0.260000" fill-rule="evenodd"/>
</svg>
