<svg width="44.500977" height="47.644714" viewBox="0 0 44.501 47.6447" fill="none" xmlns="http://www.w3.org/2000/svg" xmlns:xlink="http://www.w3.org/1999/xlink">
	<desc>
			Created with Pixso.
	</desc>
	<defs/>
	<path id="Ellipse 8" d="M9.65 45.19C20.03 51.3 34.92 45.26 41.03 34.89C47.15 24.51 45.21 8.56 34.84 2.44C24.46 -3.67 9.57 2.37 3.46 12.75C-2.66 23.13 -0.72 39.08 9.65 45.19ZM14.37 45.07Q12.45 44.52 10.67 43.47Q8.89 42.42 7.47 41.01Q3.49 37.05 2.34 30.24Q1.36 24.39 2.82 19.23Q3.63 16.39 5.18 13.76Q6.73 11.14 8.82 9.05Q12.62 5.27 18.21 3.3Q24.73 1 30.12 2.56Q32.04 3.12 33.82 4.17Q35.6 5.21 37.02 6.63Q41 10.58 42.15 17.4Q43.13 23.25 41.67 28.4Q40.86 31.24 39.31 33.87Q37.76 36.5 35.67 38.58Q31.87 42.36 26.28 44.34Q19.76 46.64 14.37 45.07Z" fill="#331B3B" fill-opacity="0.640000" fill-rule="evenodd"/>
</svg>
