<svg width="445.089233" height="630.199036" viewBox="0 0 445.089 630.199" fill="none" xmlns="http://www.w3.org/2000/svg" xmlns:xlink="http://www.w3.org/1999/xlink">
	<desc>
			Created with Pixso.
	</desc>
	<defs/>
	<path id="Vector 3" d="M307.78 16.51C165.64 -45.43 60.76 87.24 25.59 162.33C-84.54 470.16 196.6 658.28 331.83 626.11C518.6 581.69 431.89 453.79 365.18 395.39C314.73 332.2 329.6 181.36 343.35 113.84C363.72 70.04 327.8 31.37 307.78 16.51Z" fill="#FDC021" fill-opacity="1.000000" fill-rule="nonzero"/>
	<path id="Vector 3" d="M307.78 16.51C327.8 31.37 363.72 70.04 343.35 113.84C329.6 181.36 314.73 332.2 365.18 395.39C431.89 453.79 518.6 581.69 331.83 626.11C196.6 658.28 -84.54 470.16 25.59 162.33C60.76 87.24 165.64 -45.43 307.78 16.51Z" stroke="#FDC221" stroke-opacity="1.000000" stroke-width="1.000000"/>
</svg>
